<svg width="45" height="50" viewBox="0 0 45 50" fill="none" xmlns="http://www.w3.org/2000/svg">
<path fill-rule="evenodd" clip-rule="evenodd" d="M25.4661 0.792361L41.9661 10.2708C43.8416 11.3482 45 13.3597 45 15.5391V34.3385C45 36.5179 43.8416 38.5294 41.9661 39.6068L25.4661 49.0852C23.627 50.1417 21.373 50.1417 19.5339 49.0852L3.03387 39.6068C1.1584 38.5294 0 36.5179 0 34.3385L0 15.5391C0 13.3597 1.1584 11.3482 3.03387 10.2708L19.5339 0.792361C21.373 -0.26412 23.627 -0.26412 25.4661 0.792361Z" fill="#3D50E1"/>
<path d="M39.2931 37.7819V35.4316H22.2073V37.7819H39.2931Z" fill="white"/>
<path d="M7 33.0156L22.0887 25.965V23.0507L7 16V18.6323L20.06 24.5548L7 30.446V33.0156Z" fill="white"/>
</svg>
