<svg width="289" height="50" viewBox="0 0 289 50" fill="none" xmlns="http://www.w3.org/2000/svg">
  <symbol id="labs">
    <path fill-rule="evenodd" clip-rule="evenodd" d="M163.495 37.3175C163.02 37.404 162.532 37.4473 162.032 37.4473C160.506 37.4473 159.374 37.0393 158.636 36.2233C157.898 35.4073 157.529 34.1585 157.529 32.4771V10H160.531V32.3658C160.531 33.3055 160.706 33.9545 161.056 34.3131C161.406 34.6716 161.969 34.8509 162.744 34.8509C163.245 34.8509 163.657 34.8138 163.983 34.7396C164.308 34.6655 164.746 34.5295 165.296 34.3316L164.808 36.928C164.408 37.1011 163.97 37.2309 163.495 37.3175ZM78.5073 16.7135V37.0764H73.3295V16.7135H65V12.5964H86.7992V16.7135H78.5073ZM99.3429 26.7651L99.3435 37.0764H94.1657V12.5964H99.3435L99.3429 22.648H110.262V12.5964H115.44V37.0764H110.262V26.7651H99.3429ZM148.925 36.0378V32.9222L133.466 25.912L148.925 18.9389V15.8975L131.065 24.2429V27.6924L148.925 36.0378ZM177.277 37.4473C178.153 37.4473 179.041 37.3051 179.941 37.0207C180.842 36.7364 181.655 36.2913 182.38 35.6855C182.691 35.4258 182.963 35.1333 183.196 34.8078L183.277 34.6883L183.29 34.7443C183.358 35.0353 183.454 35.3017 183.578 35.5434L183.656 35.6855C183.981 36.2418 184.431 36.656 185.006 36.928C185.582 37.2 186.232 37.336 186.958 37.336C187.758 37.336 188.408 37.2124 188.909 36.9651L189.059 34.6284C188.608 34.752 188.146 34.8138 187.67 34.8138C186.72 34.8138 186.245 34.3687 186.245 33.4785V24.5025C186.245 23.0436 185.926 21.8505 185.288 20.9233C184.65 19.996 183.781 19.3036 182.68 18.8462C181.58 18.3887 180.354 18.16 179.003 18.16C177.002 18.16 175.326 18.5865 173.976 19.4396C172.625 20.2927 171.699 21.4116 171.199 22.7964L173.638 24.28C174.063 23.0436 174.726 22.1473 175.626 21.5909C176.527 21.0345 177.627 20.7564 178.928 20.7564C180.304 20.7564 181.367 21.1335 182.117 21.8876C182.868 22.6418 183.243 23.7113 183.243 25.096V25.8063L176.414 27.136C174.832 27.4396 173.578 28.0023 172.653 28.8243L172.493 28.972C171.555 29.8745 171.086 31.0182 171.086 32.4029C171.086 33.5156 171.368 34.4491 171.931 35.2033C172.493 35.9575 173.25 36.52 174.201 36.8909C175.151 37.2618 176.177 37.4473 177.277 37.4473ZM175.082 34.1276C175.695 34.6098 176.564 34.8509 177.69 34.8509C178.415 34.8509 179.11 34.7582 179.772 34.5727C180.435 34.3873 181.029 34.1029 181.555 33.7196C182.08 33.3364 182.493 32.8542 182.793 32.2731L182.871 32.112C183.119 31.5664 183.243 30.9339 183.243 30.2145V28.2592L177.803 29.3615C176.577 29.6087 175.664 29.9549 175.064 30.4C174.463 30.8451 174.163 31.4633 174.163 32.2545C174.163 33.0211 174.47 33.6455 175.082 34.1276ZM205.843 37.4473C207.394 37.4473 208.819 37.064 210.12 36.2975C211.421 35.5309 212.465 34.4244 213.253 32.9778C214.041 31.5313 214.435 29.8065 214.435 27.8036C214.435 25.776 214.047 24.0451 213.272 22.6109C212.496 21.1767 211.458 20.0764 210.158 19.3098C208.857 18.5433 207.431 18.16 205.88 18.16C204.354 18.16 202.997 18.5371 201.809 19.2913C200.901 19.868 200.193 20.564 199.687 21.3793L199.652 21.4382V10H196.65V37.0764H199.277L199.466 33.8087L199.546 33.9534C199.788 34.3776 200.078 34.7761 200.417 35.1489L200.59 35.3331C201.24 36.0007 202.016 36.52 202.916 36.8909C203.817 37.2618 204.792 37.4473 205.843 37.4473ZM202.447 33.9978C203.335 34.5665 204.367 34.8509 205.543 34.8509C207.394 34.8509 208.838 34.208 209.876 32.9222C210.914 31.6364 211.433 29.9302 211.433 27.8036C211.433 25.6771 210.92 23.9709 209.895 22.6851C208.869 21.3993 207.431 20.7564 205.58 20.7564C204.404 20.7564 203.373 21.0531 202.485 21.6465C201.597 22.24 200.903 23.0684 200.402 24.1316C199.902 25.1949 199.652 26.4436 199.652 27.8778C199.652 29.2873 199.896 30.5175 200.383 31.5684C200.871 32.6193 201.559 33.4291 202.447 33.9978ZM230.056 37.4473C231.532 37.4473 232.832 37.2124 233.958 36.7425C235.083 36.2727 235.959 35.5989 236.584 34.7211C237.21 33.8433 237.522 32.8233 237.522 31.6611C237.522 30.5236 237.172 29.5593 236.472 28.768C235.771 27.9767 234.546 27.408 232.795 27.0618L228.105 26.0975C227.079 25.8996 226.379 25.572 226.004 25.1145C225.628 24.6571 225.441 24.1564 225.441 23.6124C225.441 23.0684 225.61 22.58 225.947 22.1473C226.285 21.7145 226.773 21.3745 227.411 21.1273C228.048 20.88 228.818 20.7564 229.718 20.7564C230.744 20.7564 231.732 21.0098 232.682 21.5167C233.633 22.0236 234.321 22.8211 234.746 23.9091L237.26 22.2771C236.634 20.9665 235.684 19.9527 234.408 19.2356C233.132 18.5185 231.569 18.16 229.718 18.16C228.242 18.16 226.96 18.4135 225.872 18.9204C224.784 19.4273 223.946 20.1011 223.358 20.9418C222.771 21.7825 222.477 22.7098 222.477 23.7236C222.477 25.0095 222.871 26.0851 223.659 26.9505C224.446 27.816 225.753 28.4342 227.579 28.8051L232.082 29.7324C233.032 29.9302 233.676 30.2455 234.014 30.6782C234.352 31.1109 234.521 31.5869 234.521 32.1062C234.521 32.9222 234.145 33.5836 233.395 34.0905C232.645 34.5975 231.607 34.8509 230.281 34.8509C228.78 34.8509 227.498 34.5295 226.435 33.8865C225.372 33.2436 224.565 32.3535 224.015 31.216L221.464 33.0335C222.289 34.4429 223.471 35.5309 225.009 36.2975C226.548 37.064 228.23 37.4473 230.056 37.4473ZM262.711 27.6924L244.851 36.0378V32.9964L260.31 26.0233L244.851 19.0131V15.8975L262.711 24.2429V27.6924Z" fill="white"/>
    <path d="M288.725 43.4559V40.6741H268.501V43.4559H288.725Z" fill="#3D50E1"/>
    <path fill-rule="evenodd" clip-rule="evenodd" d="M25.4661 0.792361L41.9661 10.2708C43.8416 11.3482 45 13.3597 45 15.5391V34.3385C45 36.5179 43.8416 38.5294 41.9661 39.6068L25.4661 49.0852C23.627 50.1417 21.373 50.1417 19.5339 49.0852L3.03387 39.6068C1.1584 38.5294 0 36.5179 0 34.3385L0 15.5391C0 13.3597 1.1584 11.3482 3.03387 10.2708L19.5339 0.792361C21.373 -0.26412 23.627 -0.26412 25.4661 0.792361Z" fill="#3D50E1"/>
    <path fill-rule="evenodd" clip-rule="evenodd" d="M12.375 14.9303L17.325 12.2727V21.2058H32.6254V24.9148L17.325 27.6394V37.5694H12.375V14.9303ZM32.625 12.9373L27.675 15.6012V19.6149H32.625V12.9373ZM32.625 26.4704L27.675 27.3506V37.5694H32.625V26.4704Z" fill="white"/>
  </symbol>
</svg>
